<?xml version="1.0" encoding="UTF-8" standalone="no"?>
<svg
   xmlns="http://www.w3.org/2000/svg"
   xmlns:xlink="http://www.w3.org/1999/xlink"
   width="40"
   height="40"
   viewBox="0 0 40 40"
   fill="none"
   version="1.1"
   id="svg844">
  <metadata
     id="metadata848">
  </metadata>
  <defs
     id="defs842">
    <linearGradient
       id="paint0_linear"
       x1="2.94192"
       y1="4.89955"
       x2="37.7772"
       y2="39.7345"
       gradientUnits="userSpaceOnUse">
      <stop
         offset="0.26251316"
         stop-color="#3BEA62"
         id="stop835"
         style="stop-color:#ff3a05;stop-opacity:1" />
      <stop
         offset="0.69192016"
         stop-color="#3C99CC"
         id="stop837"
         style="stop-color:#fab800;stop-opacity:1" />
      <stop
         offset="0.93739"
         stop-color="#6B57FF"
         id="stop839"
         style="stop-color:#ffc600;stop-opacity:1" />
    </linearGradient>
    <linearGradient
       xlink:href="#paint0_linear"
       id="linearGradient878"
       x1="12.813928"
       y1="17.341524"
       x2="31.798155"
       y2="22.55615"
       gradientUnits="userSpaceOnUse" />
  </defs>
  <g
     aria-label=";"
     id="text852"
     style="font-style:normal;font-weight:normal;font-size:40px;line-height:1.25;font-family:sans-serif;fill:url(#linearGradient878);fill-opacity:1;stroke:none">
    <path
       d="m 21.793299,12.514216 c -1.485964,0 -2.763891,-0.363443 -3.833785,-1.090329 -1.069893,-0.726885 -1.60484,-1.9080754 -1.60484,-3.5435686 0,-1.7263533 0.534947,-2.9302585 1.60484,-3.611714 1.069894,-0.6814554 2.347821,-1.0221825 3.833785,-1.0221825 1.545401,0 2.853049,0.3407271 3.922942,1.0221825 1.129333,0.6814555 1.693998,1.8853607 1.693998,3.611714 0,1.6354932 -0.564665,2.8166836 -1.693998,3.5435686 -1.069893,0.726886 -2.377541,1.090329 -3.922942,1.090329 z m -8.915778,23.373923 c 0.594386,-1.726354 1.159051,-3.589 1.693998,-5.587935 0.594386,-1.953507 1.129332,-3.884297 1.60484,-5.792372 0.534946,-1.953506 0.951017,-3.72529 1.248209,-5.315353 h 8.380831 l 0.624105,0.749601 c -0.772702,2.36238 -1.902032,4.99734 -3.387996,7.904884 -1.426525,2.952973 -2.853049,5.633366 -4.279574,8.041175 z"
       style="font-style:normal;font-variant:normal;font-weight:normal;font-stretch:normal;font-family:'Noto Sans Adlam';-inkscape-font-specification:'Noto Sans Adlam';stroke-width:1.94867;fill-opacity:1.0;fill:url(#linearGradient878)"
       id="path854"/>
  </g>
</svg>
